<?xml version="1.0" encoding="iso-8859-1"?>
<!-- Generator: Adobe Illustrator 19.0.0, SVG Export Plug-In . SVG Version: 6.00 Build 0)  -->
<svg version="1.1" id="Layer_1" xmlns="http://www.w3.org/2000/svg" xmlns:xlink="http://www.w3.org/1999/xlink" x="0px" y="0px"
	 viewBox="0 0 505.193 505.193" style="enable-background:new 0 0 505.193 505.193;" xml:space="preserve">
<path style="fill:#0EE0B8;" d="M293.612,3.883H20.968C9.381,3.883,0,13.272,0,24.859v279.387l134.735,129.56h158.878
	c11.587,0,20.968-9.381,20.968-20.968V24.859C314.581,13.272,305.199,3.883,293.612,3.883z"/>
<path style="fill:#FFD400;" d="M293.612,3.883H20.968C9.381,3.883,0,13.272,0,24.859v279.387l134.735,129.56h158.878
	c11.587,0,20.968-9.381,20.968-20.968V24.859C314.581,13.272,305.199,3.883,293.612,3.883z"/>
<path style="fill:#FFC200;" d="M314.581,338.943V24.859c0-11.587-9.381-20.976-20.968-20.976H20.968C9.381,3.883,0,13.272,0,24.859"
	/>
<path style="fill:#FFB000;" d="M314.581,338.943V24.859c0-11.587-9.381-20.976-20.968-20.976H121.738"/>
<path style="fill:#FFC200;" d="M117.721,308.972v104.582c0,1.497,0.197,2.962,0.504,4.38l16.124,15.51
	c1.182,0.213,2.387,0.362,3.631,0.362h109.71L117.878,308.972L117.721,308.972L117.721,308.972z"/>
<path style="fill:#FFB000;" d="M117.721,308.972v104.582c0,1.497,0.197,2.962,0.504,4.38l16.124,15.51
	c1.182,0.213,2.387,0.362,3.631,0.362h55.966L131.3,329.121L117.721,308.972z"/>
<path style="fill:#ACC1C1;" d="M134.735,433.805h0.158V325.466c0-11.579-9.381-20.968-20.968-20.968H0.244L134.735,433.805z"/>
<polyline style="fill:#93A4A5;" points="0.244,304.498 134.735,433.805 134.892,433.805 134.892,325.466 "/>
<path style="fill:#F9E385;" d="M9.492,304.498l-0.26-0.252V24.859c0-11.587,9.381-20.976,20.984-20.976h-9.248
	C9.381,3.883,0,13.272,0,24.859v279.387l0.244,0.252L9.492,304.498L9.492,304.498z"/>
<g>
	<path style="fill:#616B6B;" d="M265.444,88c0,2.954-2.725,5.348-6.049,5.348H55.194c-3.34,0-6.049-2.395-6.049-5.348l0,0
		c0-2.954,2.71-5.341,6.049-5.341h204.201C262.719,82.66,265.444,85.046,265.444,88L265.444,88z"/>
	<path style="fill:#616B6B;" d="M265.444,129.386c0,2.946-2.725,5.348-6.049,5.348H55.194c-3.34,0-6.049-2.402-6.049-5.348l0,0
		c0-2.946,2.71-5.348,6.049-5.348h204.201C262.719,124.045,265.444,126.44,265.444,129.386L265.444,129.386z"/>
	<path style="fill:#616B6B;" d="M265.444,170.779c0,2.954-2.725,5.348-6.049,5.348H55.194c-3.34,0-6.049-2.395-6.049-5.348l0,0
		c0-2.946,2.71-5.341,6.049-5.341h204.201C262.719,165.446,265.444,167.833,265.444,170.779L265.444,170.779z"/>
	<path style="fill:#616B6B;" d="M265.444,212.172c0,2.946-2.725,5.348-6.049,5.348H55.194c-3.34,0-6.049-2.402-6.049-5.348l0,0
		c0-2.946,2.71-5.348,6.049-5.348h204.201C262.719,206.824,265.444,209.226,265.444,212.172L265.444,212.172z"/>
	<path style="fill:#616B6B;" d="M265.444,253.565c0,2.954-2.725,5.348-6.049,5.348H55.194c-3.34,0-6.049-2.395-6.049-5.348l0,0
		c0-2.946,2.71-5.341,6.049-5.341h204.201C262.719,248.225,265.444,250.619,265.444,253.565L265.444,253.565z"/>
</g>
<path style="fill:#B23B00;" d="M444.455,499.94l32.729-25.505c0.425-0.331,0.796-0.709,1.118-1.134l25.513-32.721
	c2.016-2.576,1.796-6.246-0.512-8.554L268.477,197.206c-0.827-0.819-1.859-1.418-3.001-1.701l-77.848-19.606
	c-2.206-0.551-4.537,0.095-6.152,1.701c-1.615,1.607-2.245,3.938-1.694,6.152l19.598,77.856c0.291,1.134,0.874,2.166,1.701,2.985
	L435.909,499.42C438.209,501.728,441.88,501.948,444.455,499.94z"/>
<path style="fill:#842800;" d="M460.855,487.163l16.329-12.729c0.425-0.331,0.796-0.709,1.118-1.134l12.737-16.321L231.306,197.253
	l-30.184,30.184L460.855,487.163z"/>
<path style="fill:#EDE3B7;" d="M270.643,199.372l-2.166-2.166c-0.827-0.819-1.859-1.418-3.001-1.701l-77.848-19.606
	c-2.206-0.551-4.537,0.095-6.152,1.701c-1.615,1.607-2.245,3.938-1.694,6.152l19.598,77.856c0.291,1.134,0.874,2.166,1.701,2.985
	l2.174,2.174L270.643,199.372z"/>
<path style="fill:#D3C588;" d="M270.643,199.372l-8.846,4.513c-0.827-0.819-1.875-1.418-3.001-1.701l-71.168-26.293
	c-2.206-0.551-4.537,0.095-6.152,1.701c-1.615,1.607-2.245,3.938-1.694,6.152l19.598,77.856c0.291,1.134,0.874,2.166,1.701,2.985
	l2.174,2.174L270.643,199.372z"/>
<path style="fill:#3F3C31;" d="M181.476,177.6c-1.615,1.607-2.245,3.938-1.694,6.152l10.138,40.259l37.967-37.967l-40.259-10.145
	C185.423,175.34,183.091,175.986,181.476,177.6z"/>
<path style="fill:#191711;" d="M181.476,177.6c-1.615,1.607-2.245,3.938-1.694,6.152l10.138,40.259l34.54-34.54l-40.259-10.138
	C181.981,178.774,183.091,175.986,181.476,177.6z"/>
<g>
</g>
<g>
</g>
<g>
</g>
<g>
</g>
<g>
</g>
<g>
</g>
<g>
</g>
<g>
</g>
<g>
</g>
<g>
</g>
<g>
</g>
<g>
</g>
<g>
</g>
<g>
</g>
<g>
</g>
</svg>
