<?xml version="1.0" encoding="iso-8859-1"?>
<!-- Generator: Adobe Illustrator 17.1.0, SVG Export Plug-In . SVG Version: 6.00 Build 0)  -->
<!DOCTYPE svg PUBLIC "-//W3C//DTD SVG 1.1//EN" "http://www.w3.org/Graphics/SVG/1.1/DTD/svg11.dtd">
<svg version="1.1" id="Capa_1" xmlns="http://www.w3.org/2000/svg" xmlns:xlink="http://www.w3.org/1999/xlink" x="0px" y="0px"
	 viewBox="0 0 480.669 480.669" style="enable-background:new 0 0 480.669 480.669;" xml:space="preserve">
<g>
	<path fill="#00bfd8" d="M451.082,465.669h-25.255V342.175c0-4.143-3.357-7.5-7.5-7.5H259.222v-24.326c0-0.396-0.04-0.783-0.099-1.163
		c5.249-2.169,10.07-4.658,14.507-7.368c0.002,0.001,0.005,0.003,0.007,0.004c14.415,7.355,28.306,9.971,40.779,9.971
		c29.803-0.002,51.496-14.939,52.766-15.833c1.995-1.405,3.182-3.692,3.182-6.132V140.818c0-49.166-16.814-86.598-49.973-111.256
		C294.754,10.499,259.216,0,220.323,0c-38.894,0-74.432,10.499-100.068,29.563c-33.159,24.658-49.973,62.09-49.973,111.256v149.009
		c0,2.439,1.187,4.727,3.181,6.132c1.271,0.894,22.959,15.834,52.767,15.833c12.156-0.001,25.666-2.498,39.688-9.435
		c4.188,2.5,8.707,4.805,13.604,6.828c-0.059,0.38-0.099,0.767-0.099,1.163v35.747h-37.518c-1.274-0.007-30.861,0.042-54.46,23.474
		c-18.51,18.377-27.895,45.539-27.895,80.732v15.367H29.587c-4.143,0-7.5,3.357-7.5,7.5c0,4.142,3.357,7.5,7.5,7.5h421.496
		c4.143,0,7.5-3.358,7.5-7.5C458.582,469.026,455.225,465.669,451.082,465.669z M170.353,361.214
		c2.585,22.438,19.691,40.506,41.656,44.551c-1.928,3.075-5.214,4.704-8.142,5.556c-10.787,3.138-27.079-1.116-36.023-15.185
		C155.813,377.207,166.791,364.576,170.353,361.214z M410.828,462.009H230.495V349.675h21.208c0.007,0,0.013,0.001,0.02,0.001
		s0.013-0.001,0.02-0.001h159.086V462.009z M143.912,260.629c-11.735-18.011-15.267-35.843-15.808-38.913v-21.968
		c6.65,5.542,16.243,7.728,29.813,7.728c3.924,0,8.436-0.146,14.629-0.474c12.651-0.669,21.983-5.261,27.735-13.649
		c2.189-3.193,3.629-6.685,4.545-10.23c4.811-1.657,15.539-4.164,28.643,0.157c0.917,3.491,2.347,6.926,4.504,10.072
		c5.752,8.389,15.084,12.98,27.735,13.649c6.192,0.328,10.705,0.474,14.629,0.474c0.002,0-0.001,0,0.001,0
		c13.83,0,23.538-2.26,30.201-8.042v22.292c-0.529,3.06-3.936,20.471-15.509,38.441c-16.804,26.092-42.038,40.435-75.012,42.631
		h-1.395C185.858,300.613,160.72,286.427,143.912,260.629z M310.54,147.04c-7.064-1.877-18.289-4.063-32.287-4.063
		c-12.931,0-25.859,1.865-38.427,5.543c-2.374,0.695-4.253,2.517-5.021,4.868c-0.157,0.48-2.016,6.318-2.579,14.008
		c-10.504-2.356-19.641-1.546-26.204-0.112c-0.573-7.634-2.414-13.418-2.57-13.895c-0.768-2.352-2.647-4.173-5.021-4.868
		c-12.567-3.678-25.496-5.543-38.427-5.543c-13.744,0-24.814,2.107-31.898,3.959v-7.278c2.791,0.131,6.207,0.231,10.141,0.231
		c15.138,0,38.341-1.49,62.912-8.585c25.304-7.307,46.755-18.959,63.929-34.706c6.215,11.86,19.557,30.315,45.454,40.303V147.04z
		 M308.173,161.951c-1.754,29.063-8.633,30.524-27.836,30.524c-3.65,0-7.918-0.14-13.838-0.452
		c-7.837-0.415-13.114-2.744-16.134-7.123c-4.463-6.472-3.575-16.826-2.268-23.098c9.911-2.54,20.035-3.825,30.154-3.825
		C291.786,157.978,302.378,160.306,308.173,161.951z M187.889,184.9c-3.02,4.379-8.297,6.708-16.134,7.123
		c-5.921,0.313-10.189,0.452-13.838,0.452c-19.207,0-26.084-1.462-27.837-30.541c5.757-1.645,16.278-3.957,29.922-3.957
		c10.118,0,20.242,1.285,30.153,3.825C191.465,168.084,192.35,178.432,187.889,184.9z M85.282,285.678V140.818
		c0-44.164,14.778-77.546,43.924-99.22C152.272,24.446,184.631,15,220.323,15s68.051,9.446,91.117,26.599
		c29.146,21.674,43.924,55.056,43.924,99.22v144.831c-9.123,5.195-36.709,18.125-67.83,5.978
		c8.648-7.525,15.214-15.739,20.108-23.339c14.433-22.41,17.689-43.977,17.819-44.884c0.052-0.357,0.078-0.716,0.078-1.076v-90.733
		c0-3.261-2.107-6.148-5.213-7.143c-35.749-11.449-45.126-41.776-45.499-43.032c-0.749-2.603-2.843-4.599-5.478-5.223
		c-2.638-0.624-5.401,0.221-7.238,2.209c-16.036,17.359-53.451,46.482-123.867,46.482c-10.254,0-16.705-0.735-16.764-0.742
		c-2.132-0.258-4.261,0.42-5.86,1.844c-1.601,1.423-2.517,3.463-2.517,5.604v90.733c0,0.36,0.026,0.72,0.078,1.076
		c0.131,0.907,3.387,22.474,17.819,44.884c5.011,7.779,11.765,16.204,20.718,23.874C120.98,303.535,94.275,290.876,85.282,285.678z
		 M217.893,317.782c0.162,0.011,0.323,0.016,0.485,0.016h1.887c0.162,0,0.323-0.005,0.485-0.016
		c8.499-0.551,16.299-1.832,23.472-3.668v20.561h-21.227c-4.143,0-7.5,3.357-7.5,7.5v48.978
		c-15.38-2.492-27.55-14.672-30.025-30.058h1.452c4.143,0,7.5-3.357,7.5-7.5v-39.481
		C201.594,315.95,209.394,317.232,217.893,317.782z M74.549,450.302c0-88.178,64.527-89.205,67.301-89.206h10.049
		c-5.523,10.563-7.719,25.772,3.288,43.087c10.195,16.04,26.806,23.108,41.425,23.108c4.025,0,7.898-0.536,11.446-1.568
		c2.724-0.792,5.2-1.866,7.437-3.165v43.111H74.549V450.302z"/>
	<circle fill="#00bfd8" cx="166.085" cy="173.994" r="8.951"/>
	<circle fill="#00bfd8" cx="272.559" cy="173.994" r="8.951"/>
	<path fill="#00bfd8" d="M218.022,222.376h2.6c8.026,0,14.556-6.529,14.556-14.556c0-4.143-3.357-7.5-7.5-7.5c-3.993,0-7.257,3.12-7.487,7.056
		h-1.736c-0.23-3.936-3.494-7.056-7.487-7.056c-4.142,0-7.5,3.357-7.5,7.5C203.466,215.847,209.996,222.376,218.022,222.376z"/>
	<path fill="#00bfd8" d="M286.597,400.607c0.913,11.974,8.053,22.945,19.588,30.1c3.382,2.097,7.353,3.817,12.124,5.258l0.003,0.001
		c0.069,0.021,0.134,0.043,0.203,0.064c0.188,0.056,0.375,0.084,0.563,0.124c0.15,0.033,0.298,0.076,0.451,0.1
		c0.361,0.057,0.722,0.085,1.08,0.088c0.016,0,0.032,0.004,0.049,0.004c0.001,0,0.002,0,0.003,0h0.003
		c0.017,0,0.033-0.004,0.049-0.004c0.358-0.003,0.719-0.031,1.08-0.088c0.153-0.023,0.301-0.066,0.451-0.1
		c0.188-0.041,0.377-0.068,0.563-0.124c0.069-0.021,0.134-0.042,0.202-0.064c0.002,0,0.003,0,0.003,0
		c4.774-1.442,8.743-3.162,12.123-5.26c11.538-7.156,18.677-18.128,19.588-30.1c0.421-5.519-0.932-11.085-3.81-15.68
		c-3.541-5.643-10.474-9.584-16.859-9.584c-5.093,0-9.764,1.975-13.393,5.248c-3.629-3.273-8.3-5.248-13.392-5.248
		c-6.39,0-13.322,3.942-16.859,9.585C287.533,389.514,286.179,395.081,286.597,400.607z M303.118,392.897
		c0.848-1.352,3.027-2.554,4.151-2.554c3.194,0,5.892,3.435,5.892,7.5c0,4.143,3.358,7.5,7.5,7.5c4.143,0,7.5-3.357,7.5-7.5
		c0-4.065,2.698-7.5,5.893-7.5c1.124,0,3.304,1.203,4.15,2.553c1.152,1.838,1.736,4.295,1.563,6.571
		c-0.544,7.147-5.113,13.888-12.538,18.493c-1.808,1.122-3.975,2.11-6.567,3.004c-2.593-0.894-4.762-1.882-6.57-3.004
		c-7.423-4.604-11.992-11.346-12.537-18.49C301.381,397.19,301.965,394.733,303.118,392.897z"/>
	<path fill="#00bfd8" d="M265.816,253.721c2.601-3.224,2.095-7.945-1.13-10.546c-3.225-2.6-7.946-2.096-10.546,1.13
		c-0.08,0.099-9.089,9.938-32.971,9.938c-24.794,0-36.889-10.282-37.493-10.811c-3.061-2.752-7.775-2.521-10.553,0.527
		c-2.791,3.06-2.572,7.805,0.489,10.595c0.657,0.6,16.468,14.688,47.557,14.688C252.395,269.243,264.535,255.31,265.816,253.721z"/>
</g>
<g>
</g>
<g>
</g>
<g>
</g>
<g>
</g>
<g>
</g>
<g>
</g>
<g>
</g>
<g>
</g>
<g>
</g>
<g>
</g>
<g>
</g>
<g>
</g>
<g>
</g>
<g>
</g>
<g>
</g>
</svg>
