<?xml version="1.0" encoding="iso-8859-1"?>
<!-- Generator: Adobe Illustrator 19.0.0, SVG Export Plug-In . SVG Version: 6.00 Build 0)  -->
<svg version="1.1" id="Layer_1" xmlns="http://www.w3.org/2000/svg" xmlns:xlink="http://www.w3.org/1999/xlink" x="0px" y="0px"
	 viewBox="0 0 512 512" style="enable-background:new 0 0 512 512;" xml:space="preserve">
<circle style="fill:#FFD400;" cx="256" cy="256" r="256"/>
<path style="fill:#FFD400;" d="M70.924,432.776h370.234c-46.598,48.817-112.344,79.142-185.076,79.142
	c-72.814,0-138.478-30.408-185.076-79.142H70.924z"/>
<path style="fill:#6C7678;" d="M42.571,223.291h281.312c9.204,0,16.765,7.561,16.765,16.765V413.38H25.723V240.057
	c0-9.204,7.561-16.765,16.765-16.765H42.571z"/>
<path style="fill:#FEFEFE;" d="M37.147,401.957h292.078v-161.9c0-2.959-2.466-5.424-5.424-5.424H42.489
	c-2.959,0-5.424,2.465-5.424,5.424v161.9H37.147z"/>
<path style="fill:#596366;" d="M82.594,341.059c5.095-8.958,13.067-19.477,4.931-35.339c-16.19-58.103,43.146-66.322,51.529-43.557
	c13.56,5.424,13.231,35.092,6.246,50.625c-0.329,6.41-5.342,11.67,6.082,28.189C121.22,346.073,103.551,344.347,82.594,341.059z"/>
<path style="fill:#FED198;" d="M107.495,324.294c-0.493,9.862-4.027,12.985-8.876,15.533c-2.465,2.219-20.053,3.534-26.545,11.588
	c-1.151,1.397-0.082,44.954-1.151,47.502h5.999l3.205-16.108l-0.247,16.108l68.705,0.247l2.876-20.381l3.452,19.724
	c5.999-0.822,11.752-2.301,17.341-4.356c-1.89-15.039-4.931-34.846-9.122-41.831c-5.588-9.369-23.833-10.273-26.134-12.163
	c-4.767-2.63-8.136-5.917-8.711-15.779c0,0-7.068,5.506-11.506,4.684c-4.438-0.822-9.451-4.684-9.451-4.684L107.495,324.294z"/>
<path style="fill:#FF7069;" d="M104.455,335.142c-1.561,2.137-3.534,3.452-5.835,4.684c-2.465,2.219-20.053,3.534-26.545,11.588
	l-3.698,5.999l-10.602,44.625h18.491l3.78-19.231L79.8,402.039h71.828l-0.247-19.231l4.027,19.231h20.71
	c-3.452-17.587-9.944-44.872-12.821-49.639c-5.588-9.369-23.833-10.273-26.134-12.163c-2.055-1.151-3.863-2.383-5.26-4.191
	l-13.149,25.148l-14.3-25.97V335.142z"/>
<polygon style="fill:#FFFFFF;" points="122.699,401.957 122.699,353.551 116.7,364.975 116.7,401.957 "/>
<path style="fill:#F0B97D;" d="M107.249,327.417c2.63,1.561,6.903,6.328,10.93,6.41c4.027,0.082,9.698-5.917,10.519-6.328
	c-0.082-0.575-0.164-1.151-0.164-1.726l-0.082,0.082l0,0l0,0c-0.247,0.164-7.15,5.588-11.506,4.767
	c-4.274-0.822-9.122-4.52-9.451-4.767l-0.082-0.082C107.331,326.349,107.331,326.924,107.249,327.417z"/>
<path style="fill:#FED198;" d="M96.072,308.515c4.356,9.369,5.999,13.067,11.423,17.258c0,0,5.013,3.863,9.451,4.767
	s11.506-4.767,11.506-4.767c5.424-4.191,7.068-7.89,11.423-17.258c1.068,0.575,2.219,1.315,3.041,0.329
	c0.904-0.986,5.013-13.971,4.274-15.697c-0.74-1.726-2.219-0.493-2.548,0.164c-0.247,0.329-0.411,1.644-0.74,1.644
	c-0.247,0-0.411-0.575-0.822-1.808c-1.233-3.534-3.863-7.232-4.849-19.149c-19.888,19.724-38.379,10.684-44.872,11.999
	c-1.644,0.329-1.808,4.438-1.726,6.821c0,0.247,0.493,1.397,0.329,1.479c-0.164,0-0.904-1.068-0.986-1.151
	c-6.41-4.191,1.808,15.615,1.972,15.779c0.904,0.986,1.972,0.247,3.041-0.329L96.072,308.515z"/>
<g>
	<path style="fill:#FFFFFF;" d="M104.455,335.142l14.3,25.97l-1.233,2.383c-2.219-3.123-6.657-13.56-7.479-13.56
		c-8.136,0.082-17.176,4.52-13.642-1.808l6.082-10.848l2.055-2.219L104.455,335.142z"/>
	<path style="fill:#FFFFFF;" d="M131.575,335.389l-8.876,18.08v2.794c0.411-0.247,4.767-7.232,5.178-7.232
		c4.027-0.082,12.327,4.027,13.396,1.397c0.164-0.493-0.082-1.233-0.657-2.137l-5.999-9.862L131.575,335.389z"/>
</g>
<g>
	<path style="fill:#EDEDED;" d="M119.823,367.029c0.904,0,1.644,0.74,1.644,1.644s-0.74,1.644-1.644,1.644
		c-0.904,0-1.644-0.74-1.644-1.644S118.919,367.029,119.823,367.029z"/>
	<path style="fill:#EDEDED;" d="M119.823,371.96c0.904,0,1.644,0.74,1.644,1.644c0,0.904-0.74,1.644-1.644,1.644
		c-0.904,0-1.644-0.74-1.644-1.644C118.179,372.7,118.919,371.96,119.823,371.96z"/>
</g>
<path style="fill:#E4E7ED;" d="M2.301,413.38h361.852v9.698c0,5.342-4.356,9.698-9.698,9.698H12.081
	c-5.342,0-9.698-4.356-9.698-9.698v-9.698H2.301z"/>
<polygon style="fill:#C6CBD6;" points="148.751,416.257 217.703,416.257 210.306,421.188 156.148,421.188 "/>
<g>
	<circle style="fill:#E4E7ED;" cx="185.24" cy="228.88" r="2.712"/>
	<circle style="fill:#E4E7ED;" cx="179.488" cy="228.88" r="1.068"/>
</g>
<polygon style="fill:#FED298;" points="314.268,287.065 397.108,286.326 405.573,346.401 412.065,350.182 352.729,454.308 
	293.229,350.264 307.857,342.95 "/>
<path style="fill:#6B7F9E;" d="M294.462,349.689L186.72,384.123c0,0-14.053,7.725-18.162,29.339
	c-3.287,17.423-5.26,52.186-7.561,80.293C190.418,505.508,222.469,512,256.082,512c99.606,0,185.898-56.871,228.222-139.875
	l-69.116-21.861l-120.645-0.493L294.462,349.689z"/>
<g>
	<path style="fill:#FED298;" d="M439.515,196.664c9.862,2.63,14.957,18.656,11.423,35.75c-3.616,17.094-14.546,28.928-24.408,26.299
		c-9.862-2.63-14.957-18.656-11.423-35.75C418.722,205.868,429.653,194.034,439.515,196.664z"/>
	<path style="fill:#FED298;" d="M280.326,196.5c9.944-2.383,20.628,9.615,23.997,26.792c3.287,17.176-2.055,33.12-11.999,35.503
		c-9.944,2.383-20.628-9.615-23.997-26.792C265.04,214.826,270.382,198.883,280.326,196.5z"/>
</g>
<path style="fill:#596366;" d="M267.834,137.163c-0.904,35.092,21.779,123.932,41.913,153.518c6.739,9.944,90.483,9.944,97.222,0
	c20.135-29.504,45.447-118.426,44.543-153.518c-15.615-75.773-169.133-71.006-183.761,0H267.834z"/>
<path style="fill:#FFFFFF;" d="M311.227,329.883h86.21c9.698,0,17.669,7.972,17.669,17.669v2.712H293.558v-2.712
	C293.558,337.854,301.529,329.883,311.227,329.883z"/>
<path style="fill:#83CF8F;" d="M167.653,314.679l10.602-14.546l-1.644-6.246c-0.74-2.137-1.233-4.438-1.233-6.821v-10.848
	c0-11.013,8.958-19.97,19.97-19.97h38.544c11.013,0,19.97,8.958,19.97,19.97v10.848c0,11.013-8.958,19.97-19.97,19.97h-38.544
	c-1.561,0-3.123-0.247-4.602-0.575l-23.093,8.136V314.679z"/>
<path style="fill:#FFFFFF;" d="M244.412,269.56h-55.967v-3.123h55.967V269.56z M218.114,295.777h-29.668v-3.123h29.668V295.777z
	 M244.412,287.065h-55.967v-3.123h55.967V287.065z M244.412,278.354h-55.967v-3.123h55.967V278.354z"/>
<g>
</g>
<g>
</g>
<g>
</g>
<g>
</g>
<g>
</g>
<g>
</g>
<g>
</g>
<g>
</g>
<g>
</g>
<g>
</g>
<g>
</g>
<g>
</g>
<g>
</g>
<g>
</g>
<g>
</g>
</svg>
